:version 1.10
:name ASF
:units
  mass 1
  length 1
  angle deg
:documentation
  ASF file generated by Kaydara
:root
  axis xyz
  order  tx ty tz rx ry rz
  position 0 0 0
  orientation 0 0 0
:bonedata
  begin
    id 1
    name SpineDummy
    direction 0.999998 -0.00179978 1.38929e-006
    length 3.60008
    axis 0 0 0 xyz
  end
  begin
    id 2
    name Spine
    direction 0.964365 0.262802 0.0305839
    length 8.13928
    axis 1.33928 -1.75354 15.2838 xyz
    dof rx ry rz
  end
  begin
    id 3
    name Spine1
    direction 0.811168 0.572065 0.12144
    length 7.14954
    axis 2.2224 -6.9761 35.2157 xyz
    dof rx ry rz
  end
  begin
    id 4
    name Neck
    direction 0 0 0
    length 0
    axis 2.2224 -6.9761 35.2157 xyz
    dof rx ry rz
  end
  begin
    id 5
    name HeadDummy
    direction 0.810939 0.572387 0.121455
    length 3.55534
    axis 2.2224 -6.9761 35.2157 xyz
  end
  begin
    id 6
    name Head
    direction 0.998226 -0.000232542 0.0595419
    length 7.35666
    axis -3.03688 -3.41352 -0.0133467 xyz
    dof rx ry rz
  end
  begin
    id 7
    name R_ClavicleDummy
    direction 0.531669 -0.194489 -0.824319
    length 2.49392
    axis 2.2224 -6.9761 35.2157 xyz
  end
  begin
    id 8
    name R_Clavicle
    direction -0.155119 0.0480802 -0.986725
    length 4.485
    axis -54.2764 80.6538 162.779 xyz
    dof rx ry rz
  end
  begin
    id 9
    name R_UpperArm
    direction -0.955567 0.200068 -0.216484
    length 10.1122
    axis -72.9943 12.5026 168.175 xyz
    dof rx ry rz
  end
  begin
    id 10
    name R_Forearm
    direction -0.61433 0.385743 0.688332
    length 9.39148
    axis -117.015 -43.4982 147.875 xyz
    dof rx ry rz
  end
  begin
    id 11
    name R_Hand
    direction -0.699429 0.0170333 0.714499
    length 3.66324
    axis -45.0303 -36.7097 175.478 xyz
    dof rx ry rz
  end
  begin
    id 12
    name L_ClavicleDummy
    direction 0.40287 -0.36502 0.839319
    length 2.49392
    axis 2.2224 -6.9761 35.2157 xyz
  end
  begin
    id 13
    name L_Clavicle
    direction -0.231271 -0.0726419 0.970174
    length 4.485
    axis 18.4357 -75.9711 -162.563 xyz
    dof rx ry rz
  end
  begin
    id 14
    name L_UpperArm
    direction -0.917494 0.144359 0.370629
    length 10.1122
    axis 56.0417 -21.7544 171.058 xyz
    dof rx ry rz
  end
  begin
    id 15
    name L_Forearm
    direction -0.496786 0.615074 -0.612281
    length 9.39148
    axis 89.8094 37.7546 128.927 xyz
    dof rx ry rz
  end
  begin
    id 16
    name L_Hand
    direction -0.409932 0.64962 -0.640274
    length 3.66324
    axis -0.424369 32.133 128.52 xyz
    dof rx ry rz
  end
  begin
    id 17
    name L_ThighDummy
    direction -1.84081e-006 1.87549e-006 1
    length 3.13049
    axis 0 0 0 xyz
  end
  begin
    id 18
    name L_Thigh
    direction -0.947739 0.307978 0.083308
    length 17.9961
    axis 173.219 -4.77873 161.998 xyz
    dof rx ry rz
  end
  begin
    id 19
    name L_Calf
    direction -0.728814 -0.684427 0.0197583
    length 13.3367
    axis 167.331 -1.13214 -136.799 xyz
    dof rx ry rz
  end
  begin
    id 20
    name L_Foot
    direction -0.9028 0.418719 0.0981191
    length 5.8674
    axis 163.436 11.5135 -155.37 xyz
    dof rx ry rz
  end
  begin
    id 21
    name L_Toe0
    direction -0.35341 0.886259 0.299411
    length 4.75286
    axis 169.316 -17.4222 111.74 xyz
    dof rx ry rz
  end
  begin
    id 22
    name R_ThighDummy
    direction 9.32778e-007 -8.82053e-007 -1
    length 3.13049
    axis 0 0 0 xyz
  end
  begin
    id 23
    name R_Thigh
    direction -0.925064 0.37528 -0.0585023
    length 17.9961
    axis -178.698 3.35385 157.919 xyz
    dof rx ry rz
  end
  begin
    id 24
    name R_Calf
    direction -0.68969 -0.718776 -0.0876886
    length 13.3367
    axis -160.504 5.03065 -133.817 xyz
    dof rx ry rz
  end
  begin
    id 25
    name R_Foot
    direction -0.857405 0.418858 -0.299022
    length 5.8674
    axis -161.328 4.38911 -154.413 xyz
    dof rx ry rz
  end
  begin
    id 26
    name R_Toe0
    direction -0.100745 0.952789 -0.286433
    length 4.75286
    axis 171.683 16.6445 96.0359 xyz
    dof rx ry rz
  end
:hierarchy
  begin
    root SpineDummy L_ThighDummy R_ThighDummy
    SpineDummy Spine
    Spine Spine1
    Spine1 Neck
    Neck HeadDummy R_ClavicleDummy L_ClavicleDummy
    HeadDummy Head
    R_ClavicleDummy R_Clavicle
    R_Clavicle R_UpperArm
    R_UpperArm R_Forearm
    R_Forearm R_Hand
    L_ClavicleDummy L_Clavicle
    L_Clavicle L_UpperArm
    L_UpperArm L_Forearm
    L_Forearm L_Hand
    L_ThighDummy L_Thigh
    L_Thigh L_Calf
    L_Calf L_Foot
    L_Foot L_Toe0
    R_ThighDummy R_Thigh
    R_Thigh R_Calf
    R_Calf R_Foot
    R_Foot R_Toe0
  end

:SAMPLES-PER-SECOND 30
:FULLY-SPECIFIED
:DEGREES
149
root  22.868 29.4893 -1.1 -132.101 -22.1939 97.3666
Spine  1.33813 8.48571 8.89848
Spine1  -0.165271 -7.49713 -2.10125
Neck  3.97569e-016 0 -2.38542e-015
Head  22.5061 -13.69 49.8698
R_Clavicle  -0.106448 8.99076 0.199578
R_UpperArm  22.0269 4.08497 3.89666
R_Forearm  2.0079 17.0075 -14.7486
R_Hand  1.17693 6.55846 -0.270463
L_Clavicle  -0.0169227 7.7122 -2.68079
L_UpperArm  -4.35674 10.6232 5.12906
L_Forearm  4.42029 20.1513 25.0672
L_Hand  0.458466 8.81142 3.86705
L_Thigh  -11.0472 -20.3272 8.91313
L_Calf  11.1195 -7.71879 30.38
L_Foot  -3.24361 -3.55313 -14.1811
L_Toe0  0.505156 0.034446 -6.1361
R_Thigh  11.8684 0.319969 -4.6751
R_Calf  -20.6512 0.308142 0.974056
R_Foot  -2.44679 -5.85971 4.24836
R_Toe0  -4.49178 -0.0961563 -14.9445
150
root  21.9059 28.8152 -1.18941 -127.87 -23.8558 94.0856
Spine  2.44236 9.51222 12.9503
Spine1  0.69973 -10.1723 -2.76663
Neck  3.97569e-016 0 -2.38542e-015
Head  19.2278 -11.8741 48.0415
R_Clavicle  -0.442023 10.5729 -0.881496
R_UpperArm  26.0382 8.94379 5.60253
R_Forearm  5.84487 7.31226 -6.14666
R_Hand  0.755146 7.3081 -4.70904
L_Clavicle  -0.0232586 7.24995 -2.28821
L_UpperArm  -7.35576 7.44643 3.24991
L_Forearm  3.82587 23.2544 29.8504
L_Hand  0.17857 8.10735 1.71415
L_Thigh  -10.122 -16.5649 15.1078
L_Calf  -1.63129 -11.6305 32.7122
L_Foot  -1.88358 3.34712 -11.9113
L_Toe0  0.505156 0.034446 -6.1361
R_Thigh  6.80093 0.431987 -3.4918
R_Calf  -8.10802 0.541333 1.69561
R_Foot  -6.48477 -14.0787 10.0091
R_Toe0  -1.51874 -0.296202 -17.5653
151
root  20.8843 27.9598 -1.12778 -125.092 -24.4629 90.804
Spine  3.63474 11.3513 16.5642
Spine1  1.52522 -14.132 -2.88771
Neck  3.97569e-016 0 -2.38542e-015
Head  17.1402 -9.92793 45.0519
R_Clavicle  -0.696552 12.2319 -1.61683
R_UpperArm  30.6534 13.1739 8.58161
R_Forearm  7.56829 -3.90211 3.22178
R_Hand  -0.00433235 8.41466 -11.5099
L_Clavicle  -0.0703558 5.91877 -1.05047
L_UpperArm  -13.5982 4.07344 1.37748
L_Forearm  6.00544 26.9753 35.0026
L_Hand  -0.187165 6.4368 -1.53367
L_Thigh  -8.93523 -10.9358 22.544
L_Calf  -10.4119 -14.1158 34.1399
L_Foot  -1.47323 5.22427 -11.3631
L_Toe0  0.505156 0.034446 -6.1361
R_Thigh  2.55867 -1.32772 2.17214
R_Calf  -1.44945 -1.51249 -4.46352
R_Foot  -4.03472 -7.24929 10.3787
R_Toe0  -1.78853 -0.272788 -17.3235
152
root  19.7945 27.2475 -0.964442 -121.538 -24.1103 86.9565
Spine  3.72065 12.5992 18.8385
Spine1  1.22202 -16.1927 -2.25777
Neck  3.97569e-016 0 -2.38542e-015
Head  16.6548 -9.32526 41.1085
R_Clavicle  -0.0730741 15.9759 0.610684
R_UpperArm  35.9713 15.0747 9.06715
R_Forearm  5.62555 -15.0874 12.9295
R_Hand  -1.01462 8.78237 -19.0618
L_Clavicle  -0.111151 4.27847 -0.0746956
L_UpperArm  -26.7463 1.01543 1.48312
L_Forearm  11.5376 31.8437 39.6279
L_Hand  -0.531892 4.27408 -6.00579
L_Thigh  -4.78822 -5.80049 29.4364
L_Calf  -14.6868 -14.797 36.5539
L_Foot  -1.55725 4.26047 -11.1211
L_Toe0  0.505156 0.034446 -6.1361
R_Thigh  1.31616 -5.0357 8.10716
R_Calf  0.249361 -2.84631 -8.6069
R_Foot  -3.17425 -5.03243 10.359
R_Toe0  -1.78853 -0.272788 -17.3235
153
root  18.7114 26.861 -0.788572 -117.996 -22.3052 82.7558
Spine  3.05928 12.6012 19.6014
Spine1  0.431396 -15.4657 -2.0893
Neck  3.97569e-016 0 -2.38542e-015
Head  17.2726 -10.5117 37.2532
R_Clavicle  0.740694 20.1607 3.04712
R_UpperArm  45.8438 13.6871 11.2272
R_Forearm  0.206341 -23.8539 21.3025
R_Hand  -1.76646 7.7287 -24.8927
L_Clavicle  -0.15597 3.10182 0.620863
L_UpperArm  -36.4897 -1.55686 4.70948
L_Forearm  13.0028 34.0894 45.8958
L_Hand  -0.754034 3.12707 -9.785
L_Thigh  -1.57981 -0.22469 34.8763
L_Calf  -14.1515 -13.7682 40.0722
L_Foot  -1.59173 3.84572 -11.0011
L_Toe0  0.505156 0.034446 -6.1361
R_Thigh  2.04085 -10.2769 14.388
R_Calf  -1.77155 -3.42061 -10.4278
R_Foot  -3.01561 -4.95501 9.6181
R_Toe0  -1.78853 -0.272788 -17.3235
154
root  17.7103 26.8474 -0.706891 -116.156 -19.559 79.3335
Spine  2.56655 12.0366 20.0499
Spine1  -0.00579099 -13.9566 -3.16551
Neck  3.97569e-016 0 -2.38542e-015
Head  18.1103 -11.8404 33.8244
R_Clavicle  0.282163 24.9097 1.8151
R_UpperArm  62.6706 6.57625 17.8648
R_Forearm  -5.44451 -28.5476 26.6252
R_Hand  -1.99338 6.63676 -27.1667
L_Clavicle  -0.291752 3.04636 1.80674
L_UpperArm  -39.84 -4.51303 10.5081
L_Forearm  9.66486 34.4531 52.6616
L_Hand  -0.870986 3.01731 -11.4014
L_Thigh  -0.67311 7.37641 37.587
L_Calf  -10.6389 -11.8917 42.9233
L_Foot  -1.43877 4.49902 -10.762
L_Toe0  0.505156 0.034446 -6.1361
R_Thigh  2.68509 -14.5693 19.9399
R_Calf  -4.22332 -3.30928 -10.0599
R_Foot  -3.01243 -5.6565 8.09103
R_Toe0  -1.78853 -0.272788 -17.3235
